<?xml version="1.0" encoding="UTF-8" standalone="no"?>
<!-- Created with Inkscape (http://www.inkscape.org/) -->

<svg
   xmlns:dc="http://purl.org/dc/elements/1.1/"
   xmlns:cc="http://creativecommons.org/ns#"
   xmlns:rdf="http://www.w3.org/1999/02/22-rdf-syntax-ns#"
   xmlns:svg="http://www.w3.org/2000/svg"
   xmlns="http://www.w3.org/2000/svg"
   xmlns:sodipodi="http://sodipodi.sourceforge.net/DTD/sodipodi-0.dtd"
   xmlns:inkscape="http://www.inkscape.org/namespaces/inkscape"
   width="135.46667mm"
   height="135.46669mm"
   viewBox="0 0 135.46667 135.46669"
   version="1.1"
   id="svg5379"
   inkscape:version="0.92.3 (2405546, 2018-03-11)"
   sodipodi:docname="favicon.svg"
   inkscape:export-filename="C:\Users\el3um\Downloads\logo strani anelli 1718.png"
   inkscape:export-xdpi="60"
   inkscape:export-ydpi="60">
  <defs
     id="defs5373" />
  <sodipodi:namedview
     id="base"
     pagecolor="#ffffff"
     bordercolor="#666666"
     borderopacity="1.0"
     inkscape:pageopacity="0.0"
     inkscape:pageshadow="2"
     inkscape:zoom="0.7"
     inkscape:cx="298.95429"
     inkscape:cy="150.90097"
     inkscape:document-units="mm"
     inkscape:current-layer="layer1"
     showgrid="false"
     fit-margin-top="0"
     fit-margin-left="0"
     fit-margin-right="0"
     fit-margin-bottom="0"
     inkscape:window-width="1366"
     inkscape:window-height="705"
     inkscape:window-x="-8"
     inkscape:window-y="-8"
     inkscape:window-maximized="1" />
  <metadata
     id="metadata5376">
    <rdf:RDF>
      <cc:Work
         rdf:about="">
        <dc:format>image/svg+xml</dc:format>
        <dc:type
           rdf:resource="http://purl.org/dc/dcmitype/StillImage" />
        <dc:title></dc:title>
      </cc:Work>
    </rdf:RDF>
  </metadata>
  <g
     inkscape:label="Livello 1"
     inkscape:groupmode="layer"
     id="layer1"
     transform="translate(-195.33809,119.98334)">
    <path
       sodipodi:nodetypes="csssscscscccssssccsssssccccsccsssssssccssscc"
       inkscape:connector-curvature="0"
       id="path5230"
       d="m 245.13704,8.3072612 c -36.34059,-8.92950181 -58.23845,-50.3147282 -44.31698,-83.7556632 6.98257,-16.772865 18.94809,-28.342318 34.92126,-33.765418 5.81512,-1.97431 8.05096,-2.28149 16.42022,-2.25596 5.7913,0.0176 12.23005,0.58984 16.007,1.42244 l 6.31857,1.39288 8.59555,-4.43409 c 4.72755,-2.43874 8.8069,-4.22272 9.06521,-3.96438 0.25837,0.25835 -0.13098,3.37387 -0.86491,6.92338 l -1.33467,6.45368 3.9558,4.630319 3.9558,4.630306 5.58436,0.08398 c 3.07139,0.04619 6.53218,0.353146 7.69059,0.682119 2.05535,0.583707 1.96895,0.740852 -3.58056,6.512647 -4.80568,4.998226 -5.68667,6.370297 -5.68667,8.856316 0,1.617936 -0.62447,4.774365 -1.38767,7.014229 -6.92587,11.917445 -7.08055,10.668155 -12.61597,13.635691 -5.82336,2.504537 -13.10138,1.908434 -21.80159,-1.785595 -18.269,-7.756937 -20.18951,-8.073978 -29.31445,-4.838878 -6.82141,2.418379 -10.53417,8.255319 -11.93291,18.760118 -0.42978,3.227962 -1.24827,4.574915 -5.07849,8.357522 -2.51136,2.48018 -4.37168,4.824016 -4.13408,5.208464 0.23772,0.384504 2.96871,0.701604 6.06905,0.704729 l 5.63699,0.0059 4.74043,4.852854 4.74053,4.852797 -0.68854,4.198134 c -0.37865,2.308979 -0.7111,5.271388 -0.73869,6.58319 l -0.0501,2.3847632 7.08009,-3.8593312 c 3.89407,-2.122688 7.81415,-3.859391 8.71126,-3.859391 0.89716,0 4.62994,0.79213 8.29506,1.760351 7.82028,2.065779 20.08177,2.425337 27.7259,0.813126 6.70048,-1.413238 15.83267,-5.710561 21.171,-9.96242 5.55009,-4.420521 12.41642,-14.69444 14.6469,-21.915957 1.61816,-5.239011 3.04631,-16.113041 3.5646,-27.140992 l 0.21778,-4.633591 1.09361,3.369913 c 0.60154,1.853412 1.31399,6.971528 1.58331,11.37359 1.26197,20.625975 -5.38143,38.522429 -19.54599,52.6544383 -9.54867,9.52672421 -18.47653,14.4395578 -32.98225,18.1495093 -8.59116,2.1972264 -22.57598,2.1550614 -31.73612,-0.095724 z"
       style="opacity:1;fill:#008080;fill-opacity:1;stroke:none;stroke-width:0.39161959;stroke-linecap:round;stroke-linejoin:round;stroke-miterlimit:4;stroke-dasharray:none;stroke-opacity:1" />
  </g>
</svg>
