<?xml version="1.0" encoding="UTF-8" standalone="no"?>
<!-- Created with Inkscape (http://www.inkscape.org/) -->

<svg
   xmlns:dc="http://purl.org/dc/elements/1.1/"
   xmlns:cc="http://creativecommons.org/ns#"
   xmlns:rdf="http://www.w3.org/1999/02/22-rdf-syntax-ns#"
   xmlns:svg="http://www.w3.org/2000/svg"
   xmlns="http://www.w3.org/2000/svg"
   xmlns:sodipodi="http://sodipodi.sourceforge.net/DTD/sodipodi-0.dtd"
   xmlns:inkscape="http://www.inkscape.org/namespaces/inkscape"
   width="190"
   height="36.004486"
   viewBox="0 0 50.270831 9.526187"
   version="1.1"
   id="svg8"
   inkscape:version="0.92.0 r15299"
   sodipodi:docname="icon-nome-fcc-svg.svg"
   inkscape:export-filename="V:\Desktop\C3\icona.png"
   inkscape:export-xdpi="98"
   inkscape:export-ydpi="98">
  <defs
     id="defs2" />
  <sodipodi:namedview
     id="base"
     pagecolor="#ffffff"
     bordercolor="#666666"
     borderopacity="1.0"
     inkscape:pageopacity="0.0"
     inkscape:pageshadow="2"
     inkscape:zoom="2.8284271"
     inkscape:cx="56.448505"
     inkscape:cy="1.1233658"
     inkscape:document-units="mm"
     inkscape:current-layer="layer1"
     showgrid="false"
     fit-margin-top="0"
     fit-margin-left="0"
     fit-margin-right="0"
     fit-margin-bottom="0"
     units="px"
     showguides="false"
     inkscape:window-width="1920"
     inkscape:window-height="1017"
     inkscape:window-x="-8"
     inkscape:window-y="-8"
     inkscape:window-maximized="1" />
  <metadata
     id="metadata5">
    <rdf:RDF>
      <cc:Work
         rdf:about="">
        <dc:format>image/svg+xml</dc:format>
        <dc:type
           rdf:resource="http://purl.org/dc/dcmitype/StillImage" />
        <dc:title></dc:title>
      </cc:Work>
    </rdf:RDF>
  </metadata>
  <g
     inkscape:label="Livello 1"
     inkscape:groupmode="layer"
     id="layer1"
     transform="translate(-204.99812,55.898403)">
    <g
       id="g4617">
      <rect
         y="-55.898403"
         x="204.99812"
         height="9.5249996"
         width="50.270832"
         id="rect4503"
         style="fill:none;fill-opacity:1;stroke:none;stroke-width:0.2605021;stroke-miterlimit:4;stroke-dasharray:none;stroke-opacity:1" />
      <g
         transform="matrix(0.03533136,0,0,0.03507496,205.04662,-50.746776)"
         id="g846">
        <ellipse
           style="fill:#f5f5f5;fill-opacity:1;stroke:#ee7600;stroke-width:1.32291663;stroke-miterlimit:4;stroke-dasharray:none;stroke-opacity:1"
           id="path4716-6"
           cx="190.89769"
           cy="-12.026888"
           rx="131.65645"
           ry="134.15263" />
        <path
           style="fill:#000000;fill-opacity:0;stroke:#ee7600;stroke-width:7.63760328;stroke-miterlimit:4;stroke-dasharray:none;stroke-opacity:1"
           id="path4716"
           sodipodi:type="arc"
           sodipodi:cx="191.69962"
           sodipodi:cy="-13.245102"
           sodipodi:rx="131.65645"
           sodipodi:ry="134.15263"
           sodipodi:start="0"
           sodipodi:end="3.1415927"
           sodipodi:open="true"
           d="M 323.35606,-13.245102 A 131.65645,134.15263 0 0 1 257.52784,102.93449 131.65645,134.15263 0 0 1 125.87139,102.93448 131.65645,134.15263 0 0 1 60.043167,-13.245108" />
        <path
           style="fill:none;fill-opacity:0.39215686;stroke:#1976d2;stroke-width:41.67927551;stroke-miterlimit:4;stroke-dasharray:none;stroke-opacity:1"
           id="path4682-5"
           sodipodi:type="arc"
           sodipodi:cx="24.598961"
           sodipodi:cy="-157.71906"
           sodipodi:rx="70.547729"
           sodipodi:ry="67.620308"
           sodipodi:start="0"
           sodipodi:end="4.5637984"
           sodipodi:open="true"
           d="m 95.14669,-157.71906 a 70.547729,67.620308 0 0 1 -67.054915,67.537385 70.547729,67.620308 0 0 1 -73.694686,-60.849835 70.547729,67.620308 0 0 1 59.757676,-73.56273"
           transform="matrix(0,-1,-1,0,0,0)" />
        <path
           style="fill:none;fill-opacity:0.39215686;stroke:#2196f3;stroke-width:41.67927551;stroke-miterlimit:4;stroke-dasharray:none;stroke-opacity:1"
           id="path4682-5-3"
           sodipodi:type="arc"
           sodipodi:cx="-217.95818"
           sodipodi:cy="-6.090209"
           sodipodi:rx="67.620308"
           sodipodi:ry="70.547729"
           sodipodi:start="0"
           sodipodi:end="4.5637984"
           sodipodi:open="true"
           d="m -150.33787,-6.090209 a 67.620308,70.547729 0 0 1 -64.27243,70.461212 67.620308,70.547729 0 0 1 -70.63668,-63.48415064 67.620308,70.547729 0 0 1 57.278,-76.74740536"
           transform="scale(-1)" />
      </g>
      <text
         transform="scale(1.002519,0.99748734)"
         id="text4497"
         y="-50.926918"
         x="217.26543"
         style="font-style:normal;font-variant:normal;font-weight:normal;font-stretch:normal;font-size:6.36599684px;line-height:1.19362438px;font-family:'Open Sans';-inkscape-font-specification:'Open Sans, Normal';font-variant-ligatures:normal;font-variant-caps:normal;font-variant-numeric:normal;font-feature-settings:normal;text-align:start;letter-spacing:0px;word-spacing:0px;writing-mode:lr-tb;text-anchor:start;fill:#ee7600;fill-opacity:1;stroke:none;stroke-width:0.04774497"
         xml:space="preserve"><tspan
           style="stroke-width:0.04774497"
           y="-50.926918"
           x="217.26543"
           id="tspan4501"
           sodipodi:role="line">Strani Anelli</tspan></text>
      <g
         style="fill:#2196f3;fill-opacity:1;fill-rule:evenodd;stroke:none;stroke-width:1"
         transform="matrix(0.13214598,0,0,0.1307218,218.02588,-50.162477)"
         id="Page-1-5">
        <g
           style="fill:#2196f3;fill-opacity:1"
           id="freeCodeCamp_logo"
           transform="translate(-4,-6)">
          <g
             style="fill:#2196f3;fill-opacity:1"
             id="freeCodeCamp"
             transform="translate(4,6)">
            <path
               style="fill:#2196f3;fill-opacity:1"
               inkscape:connector-curvature="0"
               d="M 3.621719,9.5856524 H 1.3368762 c -0.80212574,0 -1.215342,-0.3441003 -1.215342,-1.0568796 0,-0.6882007 0.41321626,-1.0568796 1.215342,-1.0568796 H 3.621719 V 5.4318697 c 0,-3.5393178 1.7743993,-5.28439812 5.3475047,-5.28439812 1.4341033,0 2.6494453,0.29494315 3.6217193,0.81109366 1.215342,0.76193646 1.84732,1.86797326 1.84732,3.24437466 0,0.9339867 -0.340296,1.3272442 -1.045195,1.3272442 -0.46183,0 -0.850739,-0.2949432 -1.093807,-0.8110937 C 12.007579,3.7851038 11.715897,3.2689533 11.545749,3.0477459 11.132532,2.5315954 10.281793,2.2366522 9.0178373,2.2366522 c -2.1876155,0 -3.2085027,1.1060369 -3.2085027,3.2443747 v 1.9662877 h 4.1807763 c 0.9236601,0 1.3854901,0.3441003 1.3854901,1.0568796 0,0.6882007 -0.46183,1.0568797 -1.3854901,1.0568797 H 5.8093346 V 22.858094 c 0,0.811094 -0.3402958,1.22893 -1.0451941,1.22893 -0.6805915,0 -1.0451941,-0.417836 -1.0451941,-1.22893 V 9.5856524 Z"
               id="path5_1_" />
            <path
               style="fill:#2196f3;fill-opacity:1"
               inkscape:connector-curvature="0"
               d="M 22.265065,21.727479 V 9.5856524 h -3.111276 c -0.850739,0 -1.263955,-0.3441003 -1.263955,-1.0568796 0,-0.6882007 0.413216,-1.0568796 1.263955,-1.0568796 h 4.132163 c 0.680591,0 1.093808,0.6390435 1.093808,1.7942375 1.263955,-1.40098 2.649445,-2.1383379 4.083549,-2.1383379 1.215342,0 2.114695,0.3441004 2.819593,1.1060369 0.680591,0.7619364 1.045194,1.7450803 1.045194,2.9002743 0,0.811094 -0.340296,1.22893 -1.045194,1.22893 -0.413216,0 -0.680591,-0.294943 -0.850739,-0.811094 -0.291682,-0.983144 -0.46183,-1.499294 -0.510444,-1.57303 -0.291682,-0.5161505 -0.850739,-0.8110937 -1.604251,-0.8110937 -0.802126,0 -1.555638,0.2949432 -2.23623,0.8602507 -0.413216,0.294943 -0.972273,0.933987 -1.725785,1.867974 v 9.683966 h 3.913401 c 0.850739,0 1.263956,0.344101 1.263956,0.983144 0,0.688201 -0.413217,1.106037 -1.263956,1.106037 h -9.139372 c -0.850739,0 -1.263955,-0.3441 -1.263955,-1.05688 0,-0.6882 0.413216,-1.056879 1.263955,-1.056879 h 3.15989 l -0.02431,0.17205 z"
               id="path7_1_" />
            <path
               style="fill:#2196f3;fill-opacity:1"
               inkscape:connector-curvature="0"
               d="m 37.942976,16.025245 v 2.310388 c 0,2.507016 1.725786,3.711368 5.22597,3.711368 1.263956,0 2.284843,-0.122893 3.111276,-0.417836 0.413216,-0.122894 1.142421,-0.516151 2.114695,-1.22893 0.631978,-0.589887 1.093808,-0.860251 1.263955,-0.860251 0.583365,0 0.85074,0.294943 0.85074,0.933986 0,0.639044 -0.413216,1.278087 -1.263956,1.966288 -1.38549,1.106037 -3.451571,1.671345 -6.198244,1.671345 -4.812754,0 -7.243438,-1.917131 -7.243438,-5.751392 v -5.800548 c 0,-1.327245 0.510444,-2.507017 1.482717,-3.4164253 1.31257,-1.278087 3.281424,-1.8679733 5.906562,-1.8679733 4.715527,0 7.048984,2.3841238 7.048984,7.0786356 0,1.155194 -0.46183,1.74508 -1.31257,1.74508 H 37.918669 l 0.02431,-0.07373 z m 0,-2.089181 h 10.281793 c 0,-3.14606 -1.725786,-4.6945119 -5.225971,-4.6945119 -1.263955,0 -2.406377,0.2949432 -3.451571,0.8602509 -1.045194,0.761936 -1.604251,1.622187 -1.604251,2.605331 z"
               id="path9_1_" />
            <path
               style="fill:#2196f3;fill-opacity:1"
               inkscape:connector-curvature="0"
               d="m 55.954344,16.025245 v 2.310388 c 0,2.507016 1.725785,3.711368 5.22597,3.711368 1.263956,0 2.284843,-0.122893 3.111276,-0.417836 0.413216,-0.122894 1.142421,-0.516151 2.114695,-1.22893 0.631978,-0.589887 1.093807,-0.860251 1.263955,-0.860251 0.583364,0 0.85074,0.294943 0.85074,0.933986 0,0.639044 -0.413217,1.278087 -1.263956,1.966288 -1.38549,1.106037 -3.451571,1.671345 -6.198244,1.671345 -4.812754,0 -7.243438,-1.917131 -7.243438,-5.751392 v -5.800548 c 0,-1.327245 0.510444,-2.507017 1.482717,-3.4164253 1.312569,-1.278087 3.281423,-1.8679733 5.906562,-1.8679733 4.715527,0 7.048983,2.3841238 7.048983,7.0786356 0,1.155194 -0.461829,1.74508 -1.312569,1.74508 H 55.930037 l 0.02431,-0.07373 z m 0,-2.089181 h 10.281793 c 0,-3.14606 -1.725786,-4.6945119 -5.225971,-4.6945119 -1.263955,0 -2.406377,0.2949432 -3.451571,0.8602509 -1.093808,0.761936 -1.604251,1.622187 -1.604251,2.605331 z"
               id="path11_1_" />
            <path
               style="fill:#2196f3;fill-opacity:1"
               inkscape:connector-curvature="0"
               d="M 72.094085,17.377067 V 8.3321441 c 0,-4.7682477 2.479298,-7.0786357 7.4622,-7.0786357 2.017467,0 3.621719,0.4669933 4.885674,1.3272442 1.434104,1.1060368 2.114695,2.6053312 2.114695,4.4733044 0,0.8602509 -0.340295,1.3272442 -1.093807,1.3272442 -0.510444,0 -0.85074,-0.4178361 -1.093808,-1.278087 C 84.247505,6.4150136 83.955823,5.7022343 83.566913,5.0631908 82.934935,3.9079968 81.549446,3.3918463 79.386137,3.3918463 c -1.84732,0 -3.159889,0.4669933 -3.962015,1.4009799 -0.753512,0.8602509 -1.142421,2.2120737 -1.142421,4.1292042 v 7.5456286 c 0,1.966288 0.413216,3.367268 1.215342,4.227519 0.850739,0.933987 2.187615,1.450137 4.010628,1.450137 2.819593,0 4.423845,-0.983144 4.812754,-2.949432 0.170148,-0.761936 0.218762,-1.106036 0.218762,-1.155194 0.170148,-0.417836 0.46183,-0.639043 0.850739,-0.639043 0.680592,0 1.093808,0.466993 1.093808,1.327244 0,1.794238 -0.753512,3.195218 -2.236229,4.301254 -1.215342,0.811094 -2.746673,1.22893 -4.715527,1.22893 -2.284843,0 -4.083549,-0.51615 -5.396119,-1.622187 -1.361183,-1.253509 -2.041774,-2.998589 -2.041774,-5.25982 z"
               id="path13_1_" />
            <path
               style="fill:#2196f3;fill-opacity:1"
               inkscape:connector-curvature="0"
               d="m 89.886691,18.655154 v -5.972599 c 0,-3.6622103 2.406377,-5.4564478 7.243438,-5.4564478 4.837061,0 7.243441,1.7942375 7.243441,5.4564478 v 5.972599 c 0,3.662211 -2.35777,5.456449 -7.121906,5.456449 -4.958596,0 -7.364973,-1.818816 -7.364973,-5.456449 z m 12.347879,0 v -5.972599 c 0,-2.26123 -1.72579,-3.4164243 -5.225975,-3.4164243 -3.330037,0 -5.055822,1.1551943 -5.055822,3.4164243 v 5.972599 c 0,2.261231 1.725785,3.416425 5.177356,3.367268 3.427261,0 5.104441,-1.106037 5.104441,-3.367268 z"
               id="path15_9_" />
            <path
               style="fill:#2196f3;fill-opacity:1"
               inkscape:connector-curvature="0"
               d="m 120.14871,22.120736 c -0.97228,0.761937 -1.84732,1.22893 -2.57653,1.499295 -0.80212,0.294943 -1.7744,0.466993 -2.91682,0.466993 -1.94455,0 -3.50018,-0.417836 -4.71553,-1.22893 -1.38549,-0.933986 -2.06608,-2.310388 -2.06608,-4.227518 v -6.095492 c 0,-1.794237 0.68059,-3.1952175 2.01747,-4.1292042 1.14242,-0.8110936 2.69806,-1.2289298 4.54538,-1.2289298 1.21534,0 2.23623,0.122893 3.03835,0.4178362 0.80213,0.2949431 1.65287,0.8110936 2.57653,1.5730301 V 1.6713445 c 0,-0.98314381 0.34029,-1.49929433 0.97227,-1.49929433 0.68059,0 1.09381,0.51615052 1.09381,1.49929433 V 22.980987 c 0,0.761937 -0.3403,1.106037 -0.97227,1.106037 -0.41322,0 -0.68059,-0.221207 -0.80213,-0.688201 -0.14584,-0.3441 -0.19445,-0.737358 -0.19445,-1.278087 z m -0.12154,-2.433281 v -8.356722 c -1.04519,-0.761937 -1.84732,-1.278087 -2.4793,-1.4992946 -0.85073,-0.3441003 -1.77439,-0.5161505 -2.81959,-0.5161505 -1.31257,0 -2.40638,0.2212074 -3.2085,0.7619361 -1.0452,0.639044 -1.55564,1.573031 -1.55564,2.728225 v 5.751391 c 0,1.22893 0.51044,2.138338 1.60425,2.777381 0.85074,0.466994 1.94455,0.761937 3.28143,0.761937 1.0938,0 2.06608,-0.17205 2.8682,-0.516151 0.7049,-0.491572 1.45841,-1.081458 2.30915,-1.892552 z"
               id="path17_1_" />
            <path
               style="fill:#2196f3;fill-opacity:1"
               inkscape:connector-curvature="0"
               d="m 127.9512,16.025245 v 2.310388 c 0,2.507016 1.72579,3.711368 5.22597,3.711368 1.26396,0 2.28484,-0.122893 3.11128,-0.417836 0.41321,-0.122894 1.14242,-0.516151 2.11469,-1.22893 0.63198,-0.589887 1.09381,-0.860251 1.26396,-0.860251 0.58336,0 0.85074,0.294943 0.85074,0.933986 0,0.639044 -0.41322,1.278087 -1.26396,1.966288 -1.38549,1.106037 -3.45157,1.671345 -6.19824,1.671345 -4.81276,0 -7.24344,-1.917131 -7.24344,-5.751392 v -5.800548 c 0,-1.327245 0.51044,-2.507017 1.48272,-3.4164253 1.31257,-1.278087 3.28142,-1.8679733 5.90656,-1.8679733 4.71553,0 7.04898,2.3841238 7.04898,7.0786356 0,1.155194 -0.46183,1.74508 -1.31257,1.74508 H 127.9269 v -0.07373 z m 0,-2.089181 h 10.28179 c 0,-3.14606 -1.72578,-4.6945119 -5.22597,-4.6945119 -1.26395,0 -2.40637,0.2949432 -3.45157,0.8602509 -1.09381,0.761936 -1.60425,1.622187 -1.60425,2.605331 z"
               id="path19_1_" />
            <path
               style="fill:#2196f3;fill-opacity:1"
               inkscape:connector-curvature="0"
               d="M 144.09094,17.377067 V 8.3321441 c 0,-4.7682477 2.4793,-7.0786357 7.4622,-7.0786357 2.01747,0 3.62172,0.4669933 4.88568,1.3272442 1.4341,1.1060368 2.11469,2.6053312 2.11469,4.4733044 0,0.8602509 -0.34029,1.3272442 -1.09381,1.3272442 -0.51044,0 -0.85074,-0.4178361 -1.0938,-1.278087 -0.12154,-0.6882006 -0.41322,-1.4009799 -0.80213,-2.0400234 -0.63198,-1.155194 -2.01747,-1.6713445 -4.18078,-1.6713445 -1.84732,0 -3.15989,0.4669933 -3.96201,1.4009799 -0.75351,0.8602509 -1.14242,2.2120737 -1.14242,4.1292042 v 7.5456286 c 0,1.966288 0.41321,3.367268 1.21534,4.227519 0.85074,0.933987 2.18762,1.450137 4.01063,1.450137 2.81959,0 4.42384,-0.983144 4.81275,-2.949432 0.17015,-0.761936 0.21876,-1.106036 0.21876,-1.155194 0.17015,-0.417836 0.46183,-0.639043 0.85074,-0.639043 0.68059,0 1.09381,0.466993 1.09381,1.327244 0,1.794238 -0.75351,3.195218 -2.23623,4.301254 -1.21534,0.811094 -2.74667,1.22893 -4.71553,1.22893 -2.28484,0 -4.08354,-0.51615 -5.39611,-1.622187 -1.31257,-1.253509 -2.04178,-2.998589 -2.04178,-5.25982 z"
               id="path21_1_" />
            <path
               style="fill:#2196f3;fill-opacity:1"
               inkscape:connector-curvature="0"
               d="m 173.47791,22.120736 c -1.04519,0.761937 -1.84732,1.278087 -2.40638,1.499295 -0.75351,0.294943 -1.65286,0.466993 -2.81959,0.466993 -1.72579,0 -3.15989,-0.3441 -4.2537,-1.106037 -1.26395,-0.860251 -1.94454,-2.138338 -1.94454,-3.834261 0,-1.671344 0.68059,-3.023167 2.01746,-3.957154 1.14243,-0.86025 2.64945,-1.278087 4.35093,-1.278087 1.4341,0 3.03835,0.344101 4.88567,0.983144 v -2.556174 c 0,-1.22893 -0.58336,-2.08918 -1.72578,-2.605331 -0.80213,-0.3441003 -1.7744,-0.5161505 -2.91682,-0.5161505 -2.69806,0 -4.13217,0.7619365 -4.42385,2.2612305 -0.12153,0.688201 -0.21876,1.05688 -0.21876,1.106037 -0.17015,0.344101 -0.46183,0.516151 -0.85074,0.516151 -0.75351,0 -1.14242,-0.417837 -1.14242,-1.22893 0,-1.106037 0.41322,-2.0891808 1.26396,-3.0231674 1.04519,-1.1551941 2.91682,-1.7450804 5.56626,-1.7450804 2.1147,0 3.67033,0.3441004 4.71553,1.0568797 1.21534,0.8602508 1.84732,2.3103881 1.84732,4.3504111 v 7.422736 c 0,0.860251 0.17015,1.450137 0.51044,1.745081 0.0486,0.04916 0.41322,0.221207 0.97228,0.466993 0.34029,0.17205 0.51044,0.466993 0.51044,0.983144 0,0.589886 -0.29168,0.860251 -0.92366,0.860251 -0.17015,0 -0.46183,-0.04916 -0.92366,-0.221208 -0.80213,-0.294943 -1.31257,-0.466993 -1.4341,-0.51615 -0.31599,-0.147472 -0.55906,-0.540729 -0.65629,-1.130616 z m -0.12153,-2.187495 v -3.072324 c -1.60425,-0.516151 -3.15989,-0.811094 -4.54538,-0.811094 -3.11128,0 -4.64261,0.983144 -4.64261,3.023167 0,1.05688 0.46183,1.867974 1.38549,2.310388 0.75351,0.417837 1.65287,0.639044 2.8196,0.639044 0.97227,0 1.89593,-0.17205 2.69805,-0.589886 0.63198,-0.221208 1.36119,-0.761937 2.28485,-1.499295 z"
               id="path23_1_" />
            <path
               style="fill:#2196f3;fill-opacity:1"
               inkscape:connector-curvature="0"
               d="m 181.49917,8.946609 c 0.51044,-0.6390435 0.97227,-1.1060369 1.31257,-1.2780871 0.46183,-0.2949431 1.04519,-0.4669933 1.7744,-0.4669933 1.14242,0 2.11469,0.5898863 2.98974,1.7942375 0.58336,-0.6882006 1.09381,-1.155194 1.55564,-1.4009799 0.51044,-0.2949432 1.21534,-0.4178362 2.01746,-0.4178362 2.4793,0 3.74326,1.2289298 3.74326,3.662211 v 11.773147 c 0,0.983144 -0.3403,1.450137 -1.09381,1.450137 -0.68059,0 -1.0452,-0.466993 -1.0452,-1.450137 V 11.55194 c 0,-1.499294 -0.63197,-2.3103879 -1.84732,-2.3103879 -0.92366,0 -1.84732,0.5898863 -2.64944,1.6713449 v 11.72399 c 0,0.983144 -0.3403,1.450137 -1.0452,1.450137 -0.70489,0 -1.04519,-0.466993 -1.04519,-1.450137 V 11.797726 c 0,-1.671344 -0.68059,-2.5070167 -2.01747,-2.5070167 -0.85074,0 -1.65286,0.5898863 -2.52791,1.6713447 v 11.674833 c 0,0.983144 -0.34029,1.450137 -1.09381,1.450137 -0.68059,0 -1.04519,-0.466993 -1.04519,-1.450137 V 8.2338297 c 0,-0.6882007 0.29168,-1.0568797 0.85074,-1.0568797 0.29168,0 0.58336,0.2212074 0.75351,0.6390435 0.31599,0.3195218 0.41322,0.7373579 0.41322,1.1306155 z"
               id="path25_1_" />
            <path
               style="fill:#2196f3;fill-opacity:1"
               inkscape:connector-curvature="0"
               d="m 200.16682,8.946609 c 1.60425,-1.1551941 3.50019,-1.7450804 5.56627,-1.7450804 4.35092,0 6.53854,1.8679733 6.53854,5.5056054 v 6.046335 c 0,1.74508 -0.63198,3.072324 -1.84732,4.055468 -1.09381,0.860251 -2.57653,1.327244 -4.47246,1.327244 -2.23623,0 -4.13216,-0.589886 -5.80934,-1.794237 v 6.857428 c 0,1.05688 -0.34029,1.57303 -1.04519,1.57303 -0.68059,0 -1.04519,-0.51615 -1.04519,-1.57303 V 8.7745588 c 0,-1.0568796 0.29168,-1.5730302 0.85073,-1.5730302 0.29169,0 0.58337,0.2212074 0.80213,0.6390435 0.17015,0.3441004 0.3403,0.7619365 0.46183,1.1060369 z m 0,11.03579 c 1.48272,1.327244 3.33004,2.040023 5.44473,2.040023 1.31257,0 2.35777,-0.221207 3.15989,-0.761936 0.97227,-0.589887 1.4341,-1.450138 1.4341,-2.556174 v -6.046335 c 0,-1.278087 -0.51044,-2.138338 -1.55563,-2.7282242 -0.80213,-0.4178361 -1.89594,-0.6390435 -3.20851,-0.6390435 -1.21534,0 -2.18761,0.1720502 -2.91682,0.5161505 -0.68059,0.2949432 -1.4341,0.9339872 -2.35776,1.8679732 z"
               id="path27_1_" />
            <path
               style="fill:#2196f3;fill-opacity:1"
               inkscape:connector-curvature="0"
               d="m 219.39353,14.231007 c 0,-4.5961974 1.55564,-8.6516657 4.71553,-12.2401407 1.14242,-1.32724421 2.06608,-1.9662877 2.69806,-1.9662877 0.21876,0 0.46183,0.04915719 0.63197,0.22120736 0.17015,0.17205017 0.29169,0.34410034 0.29169,0.5898863 0,0.34410034 -0.41322,0.86025084 -1.21535,1.67134454 -3.28142,3.1952175 -4.93428,7.1277928 -4.93428,11.8468832 0,5.235241 1.72578,9.462759 5.10443,12.707134 0.68059,0.639044 1.0452,1.155194 1.0452,1.57303 0,0.221208 -0.12154,0.466994 -0.29169,0.639044 -0.17014,0.17205 -0.41321,0.294943 -0.63197,0.294943 -0.80213,0 -1.89594,-0.933987 -3.33004,-2.777381 -2.77098,-3.441004 -4.08355,-7.619365 -4.08355,-12.559663 z"
               id="path29_1_" />
            <path
               style="fill:#2196f3;fill-opacity:1"
               inkscape:connector-curvature="0"
               d="m 262.85416,15.386201 c 0,4.596198 -1.55564,8.651666 -4.71553,12.240141 -1.14242,1.327244 -2.06608,1.966288 -2.69806,1.966288 -0.21876,0 -0.46183,-0.04916 -0.63198,-0.221208 -0.17014,-0.17205 -0.29168,-0.417836 -0.29168,-0.639043 0,-0.344101 0.41322,-0.860251 1.21534,-1.622188 3.28143,-3.195217 4.93429,-7.127792 4.93429,-11.846883 0,-5.235241 -1.72578,-9.4627593 -5.10443,-12.707134 -0.68059,-0.6390435 -1.0452,-1.155194 -1.0452,-1.57303016 0,-0.22120736 0.12154,-0.46699332 0.29168,-0.6390435 0.17015,-0.17205017 0.41322,-0.29494315 0.63198,-0.29494315 0.75351,0 1.89594,0.93398665 3.33004,2.77738131 2.69806,3.5147393 4.08355,7.6931005 4.08355,12.5596625 z"
               id="path31_1_" />
            <path
               style="fill:#2196f3;fill-opacity:1"
               inkscape:connector-curvature="0"
               d="m 251.02075,28.59968 h -19.88983 c -0.60825,0 -1.2165,-0.492042 -1.2165,-1.230104 0,-0.676558 0.4866,-1.230105 1.2165,-1.230105 h 19.88983 c 0.60826,0 1.21651,0.492042 1.21651,1.230105 0,0.738062 -0.4866,1.230104 -1.21651,1.230104 z"
               id="path37_1_" />
            <path
               style="fill:#2196f3;fill-opacity:1"
               inkscape:connector-curvature="0"
               d="m 236.91876,2.5070168 c 0,0 1.65287,1.155194 1.65287,3.2443747 0,3.6130536 -4.86137,7.6439435 -4.86137,11.3798895 0,4.055469 3.06266,6.709957 6.0281,7.496472 0.41321,0.09832 0.60767,-0.393257 0.0729,-0.51615 -1.19103,-0.294944 -2.55221,-1.892552 -2.55221,-4.399569 0,-2.310388 2.18761,-3.170639 3.08697,-4.301254 0.89935,-1.155194 0.68059,-2.605331 0.17014,-3.023168 -0.53475,-0.417836 -0.17014,-0.983143 0.77782,-0.319521 0.94797,0.663622 1.75009,1.91713 1.45841,3.121481 -0.3646,1.523873 0.12154,2.408703 0.89936,2.507017 0.77781,0.09831 1.65286,-0.294943 1.57994,-1.032301 -0.0972,-0.737358 -0.53475,-1.523873 -0.26738,-1.523873 0.55906,0 1.7501,1.40098 1.7501,3.613054 0,2.212073 -1.82302,3.760525 -2.35777,4.350411 -0.34029,0.344101 0.0972,0.811094 0.55906,0.589887 0.21876,-0.09831 0.7049,-0.393258 1.02089,-0.614465 1.4341,-1.032301 3.67033,-3.121482 3.67033,-7.0049 0,-4.055469 -1.53133,-5.874285 -3.06266,-7.373579 -1.53133,-1.523873 -1.92024,-1.1306154 -1.48272,-0.3932575 1.31257,2.2612305 0.51045,3.0231675 -0.43752,3.0231675 -1.11812,0 -1.19104,-2.5561742 -1.62856,-4.5224619 -0.97227,-4.3504115 -4.86137,-5.0877694 -5.59057,-5.1369266 -0.7049,0.024579 -1.36119,0.4669934 -0.48614,0.8356723 z"
               id="Shape-2" />
          </g>
        </g>
      </g>
    </g>
  </g>
</svg>
